<svg width="32" height="32" viewBox="0 0 32 32" fill="none" xmlns="http://www.w3.org/2000/svg">
<path d="M31.8333 23.79V28.54C31.8351 28.981 31.7447 29.4174 31.5681 29.8215C31.3914 30.2255 31.1323 30.5882 30.8074 30.8863C30.4825 31.1844 30.0988 31.4113 29.6811 31.5526C29.2634 31.6939 28.8208 31.7463 28.3816 31.7067C23.5094 31.1773 18.8293 29.5124 14.7174 26.8458C10.8918 24.4149 7.64838 21.1714 5.21744 17.3458C2.54157 13.2152 0.87632 8.5124 0.356601 3.61832C0.317035 3.18048 0.36907 2.73919 0.509394 2.32256C0.649717 1.90593 0.875255 1.52308 1.17165 1.19839C1.46804 0.8737 1.82879 0.614281 2.23094 0.436651C2.63308 0.25902 3.06781 0.167071 3.50744 0.166657H8.25744C9.02584 0.159095 9.77077 0.431199 10.3534 0.932251C10.936 1.4333 11.3166 2.12911 11.4241 2.88999C11.6246 4.4101 11.9964 5.90264 12.5324 7.33916C12.7455 7.90587 12.7916 8.52177 12.6653 9.11388C12.539 9.706 12.2456 10.2495 11.8199 10.68L9.8091 12.6908C12.0631 16.6548 15.3452 19.9369 19.3091 22.1908L21.3199 20.18C21.7504 19.7543 22.2939 19.4609 22.886 19.3346C23.4782 19.2084 24.0941 19.2545 24.6608 19.4675C26.0973 20.0035 27.5898 20.3753 29.1099 20.5758C29.8791 20.6843 30.5815 21.0717 31.0836 21.6644C31.5857 22.257 31.8525 23.0135 31.8333 23.79Z" fill="#D24344"/>
</svg>
