<svg width="38" height="32" viewBox="0 0 38 32" fill="none" xmlns="http://www.w3.org/2000/svg">
<path d="M5.66683 2.66663H32.3335C34.1668 2.66663 35.6668 4.16663 35.6668 5.99996V26C35.6668 27.8333 34.1668 29.3333 32.3335 29.3333H5.66683C3.8335 29.3333 2.3335 27.8333 2.3335 26V5.99996C2.3335 4.16663 3.8335 2.66663 5.66683 2.66663Z" fill="#D24344"/>
<path d="M35.6668 5.99996L19.0002 17.6666L2.3335 5.99996" fill="#D24344"/>
<path d="M35.6668 5.99996C35.6668 4.16663 34.1668 2.66663 32.3335 2.66663H5.66683C3.8335 2.66663 2.3335 4.16663 2.3335 5.99996M35.6668 5.99996V26C35.6668 27.8333 34.1668 29.3333 32.3335 29.3333H5.66683C3.8335 29.3333 2.3335 27.8333 2.3335 26V5.99996M35.6668 5.99996L19.0002 17.6666L2.3335 5.99996" stroke="#F4F4F4" stroke-width="4" stroke-linecap="round" stroke-linejoin="round"/>
</svg>
