<svg width="34" height="40" viewBox="0 0 34 40" fill="none" xmlns="http://www.w3.org/2000/svg">
<path d="M32 16.6666C32 28.3333 17 38.3333 17 38.3333C17 38.3333 2 28.3333 2 16.6666C2 12.6884 3.58035 8.87307 6.3934 6.06002C9.20644 3.24698 13.0218 1.66663 17 1.66663C20.9782 1.66663 24.7936 3.24698 27.6066 6.06002C30.4196 8.87307 32 12.6884 32 16.6666Z" fill="#D24344"/>
<path d="M17 21.6666C19.7614 21.6666 22 19.428 22 16.6666C22 13.9052 19.7614 11.6666 17 11.6666C14.2386 11.6666 12 13.9052 12 16.6666C12 19.428 14.2386 21.6666 17 21.6666Z" fill="#D24344"/>
<path d="M32 16.6666C32 28.3333 17 38.3333 17 38.3333C17 38.3333 2 28.3333 2 16.6666C2 12.6884 3.58035 8.87307 6.3934 6.06002C9.20644 3.24698 13.0218 1.66663 17 1.66663C20.9782 1.66663 24.7936 3.24698 27.6066 6.06002C30.4196 8.87307 32 12.6884 32 16.6666Z" stroke="#F4F4F4" stroke-width="4" stroke-linecap="round" stroke-linejoin="round"/>
<path d="M17 21.6666C19.7614 21.6666 22 19.428 22 16.6666C22 13.9052 19.7614 11.6666 17 11.6666C14.2386 11.6666 12 13.9052 12 16.6666C12 19.428 14.2386 21.6666 17 21.6666Z" stroke="#F4F4F4" stroke-width="4" stroke-linecap="round" stroke-linejoin="round"/>
</svg>
