<svg width="10" height="10" viewBox="0 0 10 10" fill="none" xmlns="http://www.w3.org/2000/svg">
<g clip-path="url(#clip0_107_35726)">
<path d="M8.21331 2.92999C8.17542 2.98957 8.133 3.04613 8.08642 3.09918C5.83619 5.35224 3.58511 7.60388 1.33319 9.85412C1.14285 10.0445 1.14285 10.0445 0.959276 9.86088C0.675036 9.57579 0.396717 9.28394 0.102326 9.00901C-0.0355643 8.88042 -0.0313345 8.80429 0.102326 8.67062C1.99951 6.7819 3.89332 4.88978 5.78374 2.99429L6.95538 1.82265C6.98245 1.79642 7.00529 1.76597 7.06282 1.69998H1.131C0.792623 1.69998 0.792623 1.69998 0.792623 1.35568C0.792623 0.97923 0.798545 0.601936 0.792623 0.225487C0.792623 0.0562968 0.83746 -0.00376684 1.01342 -0.00292089C3.93026 0.00102689 6.84767 0.00102689 9.76564 -0.00292089C9.93483 -0.00292089 9.98643 0.0546016 9.98643 0.2221C9.98248 3.13274 9.98248 6.04366 9.98643 8.95487C9.98643 9.13167 9.93313 9.19596 9.75379 9.19089C9.35112 9.18074 8.9476 9.19089 8.54493 9.19089C8.29114 9.19089 8.28184 9.19089 8.28184 8.93033V2.96976L8.21331 2.92999Z" fill="white"/>
</g>
<defs>
<clipPath id="clip0_107_35726">
<rect width="9.98562" height="10" fill="white"/>
</clipPath>
</defs>
</svg>
